<svg id="Layer_1" data-name="Layer 1" xmlns="http://www.w3.org/2000/svg" viewBox="0 0 651.2 231.2"><defs><style>.cls-1{fill:#3d2767;}.cls-2{fill:#00aded;}.cls-3{fill:#39bfef;}</style></defs><title>AdmiralLogo_</title><path class="cls-1" d="M268.12,137.59h-7.94a3.52,3.52,0,0,1-2.23-.68,3.8,3.8,0,0,1-1.26-1.74l-6.15-16.12H219.9l-6.15,16.12a3.93,3.93,0,0,1-1.26,1.67,3.41,3.41,0,0,1-2.23.75h-7.94L230,68.07h10.41Zm-20.38-25.9-10.31-27a60,60,0,0,1-2.23-7q-.53,2.08-1.09,3.87T233,84.82l-10.26,26.87Z"/><path class="cls-1" d="M337.44,102.83A38.74,38.74,0,0,1,335,117,31,31,0,0,1,317,135.08a37.88,37.88,0,0,1-14.09,2.52H276.78V68.07h26.14A37.9,37.9,0,0,1,317,70.59,31,31,0,0,1,335,88.67,38.79,38.79,0,0,1,337.44,102.83Zm-10.55,0a34,34,0,0,0-1.69-11.11,23.52,23.52,0,0,0-4.82-8.33,20.51,20.51,0,0,0-7.55-5.21,26.21,26.21,0,0,0-9.9-1.79H287.14v52.87h15.78a26.19,26.19,0,0,0,9.9-1.79,20.51,20.51,0,0,0,7.55-5.21,23.54,23.54,0,0,0,4.82-8.3A33.92,33.92,0,0,0,326.89,102.83Z"/><path class="cls-1" d="M423.52,68.07v69.52h-9V88.11q0-1.11.07-2.37t.17-2.57l-23.14,42.46a4,4,0,0,1-3.73,2.37h-1.45a3.85,3.85,0,0,1-3.68-2.37L359.18,83a48,48,0,0,1,.29,5.08v49.48h-9.05V68.07h7.65a6.54,6.54,0,0,1,2.11.27,3,3,0,0,1,1.43,1.48l23.24,41.64a28.55,28.55,0,0,1,1.26,2.66q.58,1.4,1.11,2.81a46.49,46.49,0,0,1,2.37-5.52l22.8-41.59a2.81,2.81,0,0,1,1.38-1.48,6.55,6.55,0,0,1,2.11-.27Z"/><path class="cls-1" d="M451.07,137.59H440.71V68.07h10.36Z"/><path class="cls-1" d="M520.35,137.59h-9.2a4.29,4.29,0,0,1-4-2.18L489.95,111.3a5.14,5.14,0,0,0-1.79-1.72,6.47,6.47,0,0,0-2.9-.51h-6.73v28.52H468.21V68.07h20a42.85,42.85,0,0,1,11.6,1.38,22.52,22.52,0,0,1,8,3.92,15.59,15.59,0,0,1,4.7,6.12,20.32,20.32,0,0,1,1.53,8A20.61,20.61,0,0,1,513,94.36a17.91,17.91,0,0,1-3.27,5.74,20.59,20.59,0,0,1-5.25,4.38,25.66,25.66,0,0,1-7,2.81,10.67,10.67,0,0,1,3.34,3.24Zm-32.44-36a23,23,0,0,0,7-1A14.2,14.2,0,0,0,500,97.87,11.23,11.23,0,0,0,503,93.66a13.93,13.93,0,0,0,1-5.4q0-6-3.95-9.05t-11.84-3h-9.73v25.42Z"/><path class="cls-1" d="M586.58,137.59h-7.94a3.52,3.52,0,0,1-2.23-.68,3.81,3.81,0,0,1-1.26-1.74L569,119.05H538.36l-6.15,16.12a3.93,3.93,0,0,1-1.26,1.67,3.41,3.41,0,0,1-2.23.75h-7.94l27.69-69.52h10.41Zm-20.38-25.9-10.31-27a60.09,60.09,0,0,1-2.23-7q-.53,2.08-1.09,3.87t-1.09,3.2l-10.26,26.87Z"/><path class="cls-1" d="M635,128.93v8.67H595.25V68.07h10.31v60.86Z"/><path class="cls-2" d="M220.06,170.69a.56.56,0,0,1,.42.2l1.16,1.25a9.19,9.19,0,0,1-3.2,2.38,11,11,0,0,1-4.55.86,10.64,10.64,0,0,1-4.2-.8,9.24,9.24,0,0,1-3.22-2.25,10.16,10.16,0,0,1-2.07-3.47,13,13,0,0,1-.74-4.46,12.52,12.52,0,0,1,.77-4.46,10.19,10.19,0,0,1,2.15-3.48,9.63,9.63,0,0,1,3.32-2.26,11.05,11.05,0,0,1,4.28-.8,10.41,10.41,0,0,1,4,.74,10.2,10.2,0,0,1,3.09,2l-1,1.33a.78.78,0,0,1-.23.25.66.66,0,0,1-.38.1,1.19,1.19,0,0,1-.66-.29,10,10,0,0,0-1-.65,7.57,7.57,0,0,0-3.9-.95,7.82,7.82,0,0,0-3,.58,6.65,6.65,0,0,0-2.38,1.67,7.71,7.71,0,0,0-1.55,2.67,10.65,10.65,0,0,0-.55,3.55,10.37,10.37,0,0,0,.58,3.58,7.92,7.92,0,0,0,1.58,2.66,6.66,6.66,0,0,0,2.35,1.66,7.5,7.5,0,0,0,2.93.57,12.06,12.06,0,0,0,1.73-.11,7,7,0,0,0,1.43-.35,6,6,0,0,0,1.21-.61,8.6,8.6,0,0,0,1.12-.88A.77.77,0,0,1,220.06,170.69Z"/><path class="cls-2" d="M247.45,164.39a12.39,12.39,0,0,1-.77,4.43,10.15,10.15,0,0,1-2.16,3.47,9.67,9.67,0,0,1-3.35,2.26,12.06,12.06,0,0,1-8.65,0,9.68,9.68,0,0,1-3.35-2.26,10.17,10.17,0,0,1-2.16-3.47,13.23,13.23,0,0,1,0-8.87,10.24,10.24,0,0,1,2.16-3.48,9.7,9.7,0,0,1,3.35-2.27,11.94,11.94,0,0,1,8.65,0,9.69,9.69,0,0,1,3.35,2.27,10.23,10.23,0,0,1,2.16,3.48A12.4,12.4,0,0,1,247.45,164.39Zm-3,0a10.91,10.91,0,0,0-.54-3.55,7.5,7.5,0,0,0-1.53-2.66,6.62,6.62,0,0,0-2.4-1.67,8.73,8.73,0,0,0-6.29,0,6.7,6.7,0,0,0-2.41,1.67,7.46,7.46,0,0,0-1.54,2.66,11.95,11.95,0,0,0,0,7.1,7.48,7.48,0,0,0,1.54,2.66,6.64,6.64,0,0,0,2.41,1.67,8.84,8.84,0,0,0,6.29,0,6.57,6.57,0,0,0,2.4-1.67,7.52,7.52,0,0,0,1.53-2.66A10.85,10.85,0,0,0,244.47,164.39Z"/><path class="cls-2" d="M272,153.63v21.5h-1.46A1.24,1.24,0,0,1,270,175a1.46,1.46,0,0,1-.46-.41L257.1,158.4c0,.25,0,.49,0,.73s0,.46,0,.67v15.32h-2.55v-21.5h1.5l.33,0a.87.87,0,0,1,.24.08.93.93,0,0,1,.21.15,2.36,2.36,0,0,1,.22.25l12.44,16.18q0-.39-.05-.76t0-.7V153.63Z"/><path class="cls-2" d="M295,156.08h-7v19h-2.89v-19h-7v-2.45H295Z"/><path class="cls-2" d="M304.13,175.13h-2.91v-21.5h2.91Z"/><path class="cls-2" d="M330,153.63v21.5h-1.46A1.25,1.25,0,0,1,328,175a1.44,1.44,0,0,1-.46-.41l-12.44-16.2c0,.25,0,.49,0,.73s0,.46,0,.67v15.32h-2.55v-21.5h1.5l.33,0a.85.85,0,0,1,.24.08.89.89,0,0,1,.21.15,2.25,2.25,0,0,1,.23.25l12.43,16.18q0-.39-.05-.76t0-.7V153.63Z"/><path class="cls-2" d="M346.82,172.82a6,6,0,0,0,2.38-.45,5,5,0,0,0,1.78-1.26,5.51,5.51,0,0,0,1.11-1.94,7.65,7.65,0,0,0,.38-2.47V153.63h2.9V166.7a9.79,9.79,0,0,1-.59,3.45,8,8,0,0,1-1.69,2.75,7.74,7.74,0,0,1-2.69,1.82,10,10,0,0,1-7.14,0,7.82,7.82,0,0,1-2.7-1.82,7.94,7.94,0,0,1-1.7-2.75,9.79,9.79,0,0,1-.59-3.45V153.63h2.9v13a7.65,7.65,0,0,0,.38,2.48,5.5,5.5,0,0,0,1.11,1.93,5.07,5.07,0,0,0,1.79,1.27A6,6,0,0,0,346.82,172.82Z"/><path class="cls-2" d="M366.5,175.13h-2.91v-21.5h2.91Z"/><path class="cls-2" d="M392.41,153.63v21.5H391a1.25,1.25,0,0,1-.58-.12,1.44,1.44,0,0,1-.46-.41l-12.44-16.2c0,.25,0,.49,0,.73s0,.46,0,.67v15.32H375v-21.5h1.5l.33,0a.85.85,0,0,1,.24.08.89.89,0,0,1,.21.15,2.25,2.25,0,0,1,.23.25l12.43,16.18q0-.39-.05-.76t0-.7V153.63Z"/><path class="cls-2" d="M418.36,164.79V173a12,12,0,0,1-3.46,1.75,13.39,13.39,0,0,1-4,.58,12.94,12.94,0,0,1-4.68-.8,10.32,10.32,0,0,1-3.56-2.25,9.81,9.81,0,0,1-2.27-3.47,12.08,12.08,0,0,1-.79-4.46,12.5,12.5,0,0,1,.77-4.48,9.91,9.91,0,0,1,2.2-3.47,9.77,9.77,0,0,1,3.47-2.24,12.48,12.48,0,0,1,4.56-.79,14.07,14.07,0,0,1,2.37.19,11,11,0,0,1,2,.54,9.6,9.6,0,0,1,1.73.86,10.55,10.55,0,0,1,1.48,1.13l-.82,1.32a.86.86,0,0,1-.5.38.88.88,0,0,1-.68-.14l-.83-.51a7.22,7.22,0,0,0-1.13-.58,9.17,9.17,0,0,0-1.58-.47,10.38,10.38,0,0,0-2.15-.2,8.71,8.71,0,0,0-3.29.59,6.94,6.94,0,0,0-2.5,1.69,7.49,7.49,0,0,0-1.59,2.67,10.49,10.49,0,0,0-.56,3.52,10.59,10.59,0,0,0,.58,3.62,7.59,7.59,0,0,0,1.65,2.71,7,7,0,0,0,2.6,1.7,10.51,10.51,0,0,0,6.1.25,11.6,11.6,0,0,0,2.27-.94V167h-3.34a.63.63,0,0,1-.46-.17.54.54,0,0,1-.17-.4v-1.65Z"/><path class="cls-2" d="M449.75,172.76v2.37H436.49v-21.5h13.25V156H439.4v7.14h8.37v2.28H439.4v7.33Z"/><path class="cls-2" d="M475.45,164.39a12.11,12.11,0,0,1-.76,4.4,9.75,9.75,0,0,1-2.16,3.39,9.6,9.6,0,0,1-3.35,2.18,11.7,11.7,0,0,1-4.33.77h-8v-21.5h8a11.7,11.7,0,0,1,4.33.77,9.57,9.57,0,0,1,3.35,2.19,9.82,9.82,0,0,1,2.16,3.4A12.11,12.11,0,0,1,475.45,164.39Zm-3,0a10.81,10.81,0,0,0-.54-3.54,7.46,7.46,0,0,0-1.53-2.64,6.54,6.54,0,0,0-2.4-1.65,8.34,8.34,0,0,0-3.15-.57h-5.12v16.78h5.12a8.34,8.34,0,0,0,3.15-.57,6.57,6.57,0,0,0,2.4-1.64,7.39,7.39,0,0,0,1.53-2.63A10.8,10.8,0,0,0,472.46,164.39Z"/><path class="cls-2" d="M490.93,172.82a6,6,0,0,0,2.38-.45,5,5,0,0,0,1.78-1.26,5.52,5.52,0,0,0,1.11-1.94,7.65,7.65,0,0,0,.38-2.47V153.63h2.89V166.7a9.81,9.81,0,0,1-.59,3.45,8,8,0,0,1-1.7,2.75,7.74,7.74,0,0,1-2.69,1.82,10,10,0,0,1-7.14,0,7.8,7.8,0,0,1-2.7-1.82,8,8,0,0,1-1.7-2.75,9.81,9.81,0,0,1-.59-3.45V153.63h2.89v13a7.65,7.65,0,0,0,.38,2.48,5.52,5.52,0,0,0,1.11,1.93,5.07,5.07,0,0,0,1.79,1.27A6,6,0,0,0,490.93,172.82Z"/><path class="cls-2" d="M522.79,170.69a.56.56,0,0,1,.42.2l1.16,1.25a9.2,9.2,0,0,1-3.2,2.38,11,11,0,0,1-4.55.86,10.63,10.63,0,0,1-4.2-.8,9.24,9.24,0,0,1-3.23-2.25,10.16,10.16,0,0,1-2.07-3.47,13,13,0,0,1-.74-4.46,12.52,12.52,0,0,1,.76-4.46,10.21,10.21,0,0,1,2.15-3.48,9.64,9.64,0,0,1,3.32-2.26,11.05,11.05,0,0,1,4.27-.8,10.42,10.42,0,0,1,4.05.74,10.21,10.21,0,0,1,3.09,2l-1,1.33a.79.79,0,0,1-.23.25.67.67,0,0,1-.38.1,1.19,1.19,0,0,1-.66-.29,9.82,9.82,0,0,0-1-.65,7.57,7.57,0,0,0-3.9-.95,7.81,7.81,0,0,0-3,.58,6.65,6.65,0,0,0-2.38,1.67,7.7,7.7,0,0,0-1.55,2.67,10.65,10.65,0,0,0-.56,3.55,10.35,10.35,0,0,0,.58,3.58,7.92,7.92,0,0,0,1.57,2.66,6.66,6.66,0,0,0,2.36,1.66,7.5,7.5,0,0,0,2.93.57,12.07,12.07,0,0,0,1.73-.11,7,7,0,0,0,1.42-.35,5.94,5.94,0,0,0,1.21-.61,8.6,8.6,0,0,0,1.12-.88A.77.77,0,0,1,522.79,170.69Z"/><path class="cls-2" d="M548.21,175.13H546a1,1,0,0,1-.63-.2,1.2,1.2,0,0,1-.36-.5l-2-5.19h-9.64l-2,5.19a1,1,0,0,1-.34.48,1,1,0,0,1-.63.21h-2.25l8.59-21.5h2.94Zm-6.06-8-3.37-8.74c-.1-.26-.21-.56-.32-.91s-.21-.71-.32-1.1a16.37,16.37,0,0,1-.64,2l-3.37,8.73Z"/><path class="cls-2" d="M566.47,156.08h-7v19h-2.9v-19h-7v-2.45h16.83Z"/><path class="cls-2" d="M575.56,175.13h-2.91v-21.5h2.91Z"/><path class="cls-2" d="M603.91,164.39a12.41,12.41,0,0,1-.76,4.43,10.15,10.15,0,0,1-2.16,3.47,9.66,9.66,0,0,1-3.35,2.26,12.06,12.06,0,0,1-8.65,0,9.67,9.67,0,0,1-3.34-2.26,10.14,10.14,0,0,1-2.16-3.47,13.23,13.23,0,0,1,0-8.87,10.21,10.21,0,0,1,2.16-3.48A9.7,9.7,0,0,1,589,154.2a11.94,11.94,0,0,1,8.65,0,9.68,9.68,0,0,1,3.35,2.27,10.23,10.23,0,0,1,2.16,3.48A12.42,12.42,0,0,1,603.91,164.39Zm-3,0a10.94,10.94,0,0,0-.54-3.55,7.52,7.52,0,0,0-1.53-2.66,6.63,6.63,0,0,0-2.4-1.67,8.73,8.73,0,0,0-6.28,0,6.7,6.7,0,0,0-2.41,1.67,7.44,7.44,0,0,0-1.54,2.66,11.95,11.95,0,0,0,0,7.1,7.46,7.46,0,0,0,1.54,2.66,6.64,6.64,0,0,0,2.41,1.67,8.84,8.84,0,0,0,6.28,0,6.57,6.57,0,0,0,2.4-1.67,7.54,7.54,0,0,0,1.53-2.66A10.87,10.87,0,0,0,600.92,164.39Z"/><path class="cls-2" d="M628.48,153.63v21.5H627a1.25,1.25,0,0,1-.58-.12,1.44,1.44,0,0,1-.46-.41l-12.44-16.2c0,.25,0,.49,0,.73s0,.46,0,.67v15.32h-2.55v-21.5h1.5l.33,0a.85.85,0,0,1,.24.08.89.89,0,0,1,.21.15,2.25,2.25,0,0,1,.23.25L626,170.31q0-.39-.05-.76t0-.7V153.63Z"/><path class="cls-3" d="M109.06,164.81c4.79-101.22,69.3-143,69.3-143C48.44,36.52,14.56,181.86,14.56,181.86S40.85,161.09,64,158.42C90.08,155.42,109.06,164.81,109.06,164.81Z"/><path class="cls-3" d="M162.45,49.19s-40.9,44.52-40.29,121.73c0,0,35.77,41,84.8,37.93C207,208.85,140.85,173.42,162.45,49.19Z"/></svg>