<!--?xml version="1.0" standalone="no"?-->
<svg xmlns="http://www.w3.org/2000/svg" version="1.2" baseProfile="tiny" width="960" height="639">
[<rect x="0" y="0" width="959" height="638" fill="rgb(100,77,55)" fill-opacity="1"></rect>,<polygon points="879,209 0,143 816,0" fill="rgb(255,255,215)" fill-opacity="0.5019607843137255"></polygon>,<polygon points="959,638 559,638 959,167" fill="rgb(9,0,0)" fill-opacity="0.5019607843137255"></polygon>,<polygon points="0,285 653,596 477,162" fill="rgb(29,16,0)" fill-opacity="0.5019607843137255"></polygon>,<polygon points="810,0 196,0 41,136" fill="rgb(134,178,209)" fill-opacity="0.5019607843137255"></polygon>,<polygon points="0,145 428,638 0,638" fill="rgb(30,11,0)" fill-opacity="0.5019607843137255"></polygon>,<polygon points="253,206 0,154 959,80" fill="rgb(255,195,142)" fill-opacity="0.5019607843137255"></polygon>,<polygon points="600,365 754,482 516,400" fill="rgb(208,142,84)" fill-opacity="0.5019607843137255"></polygon>,<polygon points="515,185 679,35 796,179" fill="rgb(255,243,205)" fill-opacity="0.5019607843137255"></polygon>,<polygon points="147,505 413,556 148,376" fill="rgb(139,94,37)" fill-opacity="0.5019607843137255"></polygon>,<polygon points="652,484 709,472 730,394" fill="rgb(246,165,107)" fill-opacity="0.5019607843137255"></polygon>,<polygon points="959,174 671,173 932,0" fill="rgb(246,169,119)" fill-opacity="0.5019607843137255"></polygon>,<polygon points="513,106 640,158 423,130" fill="rgb(133,52,30)" fill-opacity="0.5019607843137255"></polygon>,<polygon points="861,89 453,23 474,115" fill="rgb(239,180,160)" fill-opacity="0.5019607843137255"></polygon>,<polygon points="943,173 719,630 703,183" fill="rgb(98,51,11)" fill-opacity="0.5019607843137255"></polygon>,<polygon points="605,191 690,431 407,170" fill="rgb(91,41,3)" fill-opacity="0.5019607843137255"></polygon>,<polygon points="898,149 959,149 938,101" fill="rgb(74,34,16)" fill-opacity="0.5019607843137255"></polygon>,<polygon points="0,172 361,0 0,0" fill="rgb(57,86,107)" fill-opacity="0.5019607843137255"></polygon>,<polygon points="432,638 349,531 685,604" fill="rgb(41,22,0)" fill-opacity="0.5019607843137255"></polygon>,<polygon points="611,482 610,511 831,505" fill="rgb(0,0,0)" fill-opacity="0.5019607843137255"></polygon>,<polygon points="190,374 273,388 540,346" fill="rgb(135,101,43)" fill-opacity="0.5019607843137255"></polygon>,<polygon points="0,192 380,189 60,85" fill="rgb(203,141,101)" fill-opacity="0.5019607843137255"></polygon>,<polygon points="556,0 959,108 959,0" fill="rgb(120,127,142)" fill-opacity="0.5019607843137255"></polygon>,<polygon points="398,487 313,460 615,482" fill="rgb(233,186,173)" fill-opacity="0.5019607843137255"></polygon>,<polygon points="662,270 537,187 805,177" fill="rgb(243,122,42)" fill-opacity="0.5019607843137255"></polygon>,<polygon points="550,317 549,386 368,324" fill="rgb(148,101,43)" fill-opacity="0.5019607843137255"></polygon>,<polygon points="275,191 427,319 0,232" fill="rgb(21,16,9)" fill-opacity="0.5019607843137255"></polygon>,<polygon points="462,497 550,548 647,511" fill="rgb(157,123,50)" fill-opacity="0.5019607843137255"></polygon>,<polygon points="841,326 876,351 759,393" fill="rgb(152,114,51)" fill-opacity="0.5019607843137255"></polygon>,<polygon points="692,83 566,184 732,179" fill="rgb(255,255,238)" fill-opacity="0.5019607843137255"></polygon>,<polygon points="313,263 868,275 775,358" fill="rgb(50,27,9)" fill-opacity="0.5019607843137255"></polygon>,<polygon points="959,175 863,363 811,177" fill="rgb(68,36,26)" fill-opacity="0.5019607843137255"></polygon>,<polygon points="798,433 959,340 959,495" fill="rgb(6,9,0)" fill-opacity="0.5019607843137255"></polygon>,<polygon points="627,394 726,403 792,479" fill="rgb(209,149,52)" fill-opacity="0.5019607843137255"></polygon>,<polygon points="641,148 298,135 550,187" fill="rgb(255,202,135)" fill-opacity="0.5019607843137255"></polygon>,<polygon points="294,570 278,459 523,532" fill="rgb(111,72,20)" fill-opacity="0.5019607843137255"></polygon>,<polygon points="43,442 220,511 119,368" fill="rgb(115,72,33)" fill-opacity="0.5019607843137255"></polygon>,<polygon points="208,247 0,213 0,369" fill="rgb(0,4,4)" fill-opacity="0.5019607843137255"></polygon>,<polygon points="0,637 0,460 270,638" fill="rgb(21,12,0)" fill-opacity="0.5019607843137255"></polygon>,<polygon points="959,150 837,175 931,175" fill="rgb(255,177,80)" fill-opacity="0.5019607843137255"></polygon>,<polygon points="692,429 804,511 812,497" fill="rgb(132,101,35)" fill-opacity="0.5019607843137255"></polygon>,<polygon points="394,106 491,107 393,124" fill="rgb(83,45,47)" fill-opacity="0.5019607843137255"></polygon>,<polygon points="556,387 591,407 572,374" fill="rgb(255,198,165)" fill-opacity="0.5019607843137255"></polygon>,<polygon points="238,422 351,495 264,469" fill="rgb(21,14,4)" fill-opacity="0.5019607843137255"></polygon>,<polygon points="0,196 0,89 129,164" fill="rgb(130,97,72)" fill-opacity="0.5019607843137255"></polygon>,<polygon points="241,324 289,316 295,358" fill="rgb(165,106,44)" fill-opacity="0.5019607843137255"></polygon>,<polygon points="728,0 102,100 366,123" fill="rgb(177,162,153)" fill-opacity="0.5019607843137255"></polygon>,<polygon points="645,147 909,123 720,162" fill="rgb(243,137,64)" fill-opacity="0.5019607843137255"></polygon>,<polygon points="542,0 233,81 782,52" fill="rgb(151,153,157)" fill-opacity="0.5019607843137255"></polygon>,<polygon points="510,544 511,524 429,521" fill="rgb(27,8,0)" fill-opacity="0.5019607843137255"></polygon>,<polygon points="327,510 431,545 348,559" fill="rgb(140,99,47)" fill-opacity="0.5019607843137255"></polygon>,<polygon points="498,140 323,201 96,152" fill="rgb(255,185,132)" fill-opacity="0.5019607843137255"></polygon>,<polygon points="603,484 622,504 473,498" fill="rgb(0,1,0)" fill-opacity="0.5019607843137255"></polygon>,<polygon points="786,565 876,564 775,585" fill="rgb(0,0,0)" fill-opacity="0.5019607843137255"></polygon>,<polygon points="636,536 490,548 664,564" fill="rgb(0,0,0)" fill-opacity="0.5019607843137255"></polygon>,<polygon points="604,473 688,463 427,379" fill="rgb(5,10,0)" fill-opacity="0.5019607843137255"></polygon>,<polygon points="556,371 574,433 495,357" fill="rgb(149,101,54)" fill-opacity="0.5019607843137255"></polygon>,<polygon points="562,535 712,543 682,513" fill="rgb(142,103,41)" fill-opacity="0.5019607843137255"></polygon>,<polygon points="732,373 803,356 688,365" fill="rgb(235,167,97)" fill-opacity="0.5019607843137255"></polygon>,<polygon points="959,492 959,528 770,542" fill="rgb(0,0,0)" fill-opacity="0.5019607843137255"></polygon>,<polygon points="655,331 731,331 715,362" fill="rgb(21,1,0)" fill-opacity="0.5019607843137255"></polygon>,<polygon points="701,399 633,347 611,388" fill="rgb(33,35,15)" fill-opacity="0.5019607843137255"></polygon>,<polygon points="47,193 298,223 0,259" fill="rgb(49,39,30)" fill-opacity="0.5019607843137255"></polygon>,<polygon points="421,610 161,532 246,543" fill="rgb(138,93,37)" fill-opacity="0.5019607843137255"></polygon>,<polygon points="479,499 405,495 475,524" fill="rgb(155,121,65)" fill-opacity="0.5019607843137255"></polygon>,<polygon points="314,610 455,608 383,567" fill="rgb(128,85,38)" fill-opacity="0.5019607843137255"></polygon>,<polygon points="586,382 527,300 679,384" fill="rgb(76,56,22)" fill-opacity="0.5019607843137255"></polygon>,<polygon points="726,182 885,92 886,174" fill="rgb(255,179,104)" fill-opacity="0.5019607843137255"></polygon>,<polygon points="673,218 745,178 569,186" fill="rgb(255,156,53)" fill-opacity="0.5019607843137255"></polygon>,<polygon points="959,0 935,73 702,0" fill="rgb(101,112,121)" fill-opacity="0.5019607843137255"></polygon>,<polygon points="91,193 278,209 244,190" fill="rgb(131,83,67)" fill-opacity="0.5019607843137255"></polygon>,<polygon points="458,138 424,99 556,119" fill="rgb(114,89,82)" fill-opacity="0.5019607843137255"></polygon>,<polygon points="218,561 95,555 248,587" fill="rgb(114,78,26)" fill-opacity="0.5019607843137255"></polygon>,<polygon points="495,474 635,487 666,470" fill="rgb(131,122,126)" fill-opacity="0.5019607843137255"></polygon>,<polygon points="491,357 562,434 315,401" fill="rgb(24,24,11)" fill-opacity="0.5019607843137255"></polygon>,<polygon points="203,492 267,511 178,492" fill="rgb(11,12,1)" fill-opacity="0.5019607843137255"></polygon>,<polygon points="439,480 350,486 170,383" fill="rgb(135,117,113)" fill-opacity="0.5019607843137255"></polygon>,<polygon points="403,173 539,236 440,208" fill="rgb(131,73,37)" fill-opacity="0.5019607843137255"></polygon>,<polygon points="712,48 708,146 814,126" fill="rgb(255,199,153)" fill-opacity="0.5019607843137255"></polygon>,<polygon points="959,632 811,577 836,638" fill="rgb(12,9,0)" fill-opacity="0.5019607843137255"></polygon>,<polygon points="560,385 575,399 588,371" fill="rgb(255,178,137)" fill-opacity="0.5019607843137255"></polygon>,<polygon points="333,439 443,428 357,406" fill="rgb(139,109,45)" fill-opacity="0.5019607843137255"></polygon>,<polygon points="766,388 789,349 868,414" fill="rgb(119,94,36)" fill-opacity="0.5019607843137255"></polygon>,<polygon points="424,117 530,164 338,179" fill="rgb(255,199,146)" fill-opacity="0.5019607843137255"></polygon>,<polygon points="450,474 562,486 443,488" fill="rgb(210,149,120)" fill-opacity="0.5019607843137255"></polygon>,<polygon points="144,539 234,572 294,570" fill="rgb(16,13,3)" fill-opacity="0.5019607843137255"></polygon>,<polygon points="230,254 347,335 164,281" fill="rgb(108,65,27)" fill-opacity="0.5019607843137255"></polygon>,<polygon points="650,555 759,623 646,622" fill="rgb(102,70,28)" fill-opacity="0.5019607843137255"></polygon>,<polygon points="683,344 518,341 582,308" fill="rgb(139,99,41)" fill-opacity="0.5019607843137255"></polygon>,<polygon points="288,247 355,262 289,219" fill="rgb(108,64,28)" fill-opacity="0.5019607843137255"></polygon>,<polygon points="609,352 560,353 544,394" fill="rgb(26,23,5)" fill-opacity="0.5019607843137255"></polygon>,<polygon points="474,607 501,638 366,617" fill="rgb(3,1,0)" fill-opacity="0.5019607843137255"></polygon>,<polygon points="727,88 959,59 959,115" fill="rgb(184,140,101)" fill-opacity="0.5019607843137255"></polygon>,<polygon points="228,407 172,341 261,332" fill="rgb(15,13,8)" fill-opacity="0.5019607843137255"></polygon>,<polygon points="41,69 297,71 89,147" fill="rgb(119,118,107)" fill-opacity="0.5019607843137255"></polygon>,<polygon points="202,533 188,511 324,560" fill="rgb(0,0,0)" fill-opacity="0.5019607843137255"></polygon>,<polygon points="661,515 603,486 752,485" fill="rgb(4,8,0)" fill-opacity="0.5019607843137255"></polygon>,<polygon points="261,487 269,481 289,489" fill="rgb(203,143,81)" fill-opacity="0.5019607843137255"></polygon>,<polygon points="680,424 639,408 600,399" fill="rgb(0,1,0)" fill-opacity="0.5019607843137255"></polygon>,<polygon points="163,138 387,92 370,182" fill="rgb(245,184,142)" fill-opacity="0.5019607843137255"></polygon>,<polygon points="47,117 0,0 268,0" fill="rgb(53,80,98)" fill-opacity="0.5019607843137255"></polygon>]</svg>